<?xml version="1.0" encoding="UTF-8"?>
<svg xmlns="http://www.w3.org/2000/svg" width="210" height="95" viewBox="0 0 210 95" fill="none">
  <g clip-path="url(#clip0_4055_7472)">
    <path d="M124.251 11.63C122.721 9.57003 120.651 7.59003 117.921 5.74003C97.4513 -7.98997 83.8013 5.62003 84.4813 18.44C84.4513 22.11 85.3013 24.68 86.7713 26.65C87.1213 26.37 87.4913 26.09 87.8813 25.81C94.2813 20.97 95.8813 24.24 95.6113 27.04C95.4313 28.92 94.9313 30.5 94.2313 31.9C98.2613 33.76 103.101 35.53 107.821 38.98C113.991 31.51 125.881 28.25 124.251 11.63Z" fill="#FA5A25"></path>
    <path d="M124.249 11.61C125.869 28.25 113.989 31.51 107.819 38.98C105.869 41.35 104.479 44.13 104.289 47.9C103.959 54.26 110.539 60.6 120.389 51.7C140.889 32.31 124.249 11.61 124.249 11.61Z" fill="white"></path>
    <path d="M81.2402 51.3301C81.2402 51.3301 81.2102 51.2701 81.1602 51.1501C81.5502 52.2501 82.1502 53.2701 82.9902 54.2001C90.7602 62.2001 107.19 60.6101 102.18 50.9901C99.3302 44.8501 90.4002 45.0201 88.0802 39.2101C85.0402 42.1901 82.0602 45.4901 81.2402 51.3401" fill="#FA5A25"></path>
    <path d="M87.8803 25.81C87.4903 26.08 87.1303 26.36 86.7703 26.65C75.2603 35.85 80.4403 49.42 81.1703 51.14C81.2203 51.26 81.2503 51.32 81.2503 51.32C82.0803 45.48 85.0503 42.18 88.0903 39.19C90.4203 36.91 92.7703 34.8 94.2303 31.89C94.9303 30.49 95.4303 28.91 95.6103 27.03C95.8803 24.23 94.2803 20.96 87.8803 25.8" fill="white"></path>
    <path d="M205.422 71.26L199.132 80.81L192.842 71.26H188.262L197.112 84.7V93.58H201.132V84.7L210.002 71.26H205.422Z" fill="white"></path>
    <path d="M186.549 71.26H167.309V75.09H186.549V71.26Z" fill="white"></path>
    <path d="M174.941 93.58H178.921V77.62L174.941 79.02V93.58Z" fill="white"></path>
    <path d="M163.36 71.26H159.34V93.57H163.36V71.26Z" fill="white"></path>
    <path d="M155.013 78.9601C155.013 74.7101 151.623 71.2301 147.413 71.2301H147.383L135.953 71.2601V93.5701H139.973V75.3401H147.413C149.403 75.3401 150.993 76.9701 150.993 78.9501C150.993 81.4701 148.843 83.2301 145.573 83.2301H142.493L151.123 93.5701H156.103L149.753 85.9701C152.863 85.0101 155.013 82.2301 155.013 78.9501" fill="white"></path>
    <path d="M122.312 81.1V84.99H128.072C127.292 87.74 125.172 90.07 121.562 90.07C117.452 90.07 114.122 86.62 114.122 82.41C114.122 78.2 117.452 74.75 121.562 74.75C123.932 74.75 126.142 75.93 127.542 77.85L130.842 75.49C128.692 72.49 125.232 70.67 121.562 70.67C115.242 70.67 110.102 75.94 110.102 82.42C110.102 88.9 115.242 94.2 121.562 94.2C124.702 94.2 127.572 92.92 129.562 90.62C131.432 88.48 132.422 85.58 132.422 82.42C132.422 81.97 132.422 81.56 132.362 81.11H122.302L122.312 81.1Z" fill="white"></path>
    <path d="M90.5898 93.58H108.12V89.72H94.6098V84.35H105.79V80.49H94.6098V75.1H108.12V71.26H90.5898V93.58Z" fill="white"></path>
    <path d="M10.96 71.17H0V93.58H4.02V75.16H10.84C13.14 75.16 14.98 77.04 14.98 79.34C14.98 81.64 13.14 83.52 10.84 83.52H6.73L8.04 87.51H10.97C15.39 87.51 19 83.84 19 79.34C19 74.84 15.39 71.17 10.97 71.17" fill="white"></path>
    <path d="M41.0991 78.9601C41.0991 74.7101 37.7091 71.2301 33.4991 71.2301H33.4691L22.0391 71.2601V93.5701H26.0591V75.3401H33.4991C35.4891 75.3401 37.0791 76.9701 37.0791 78.9501C37.0791 81.4701 34.9291 83.2301 31.6591 83.2301H28.5791L37.2091 93.5701H42.1891L35.8391 85.9701C38.9491 85.0101 41.0991 82.2301 41.0991 78.9501" fill="white"></path>
    <path d="M75.6992 93.58H79.6792V77.62L75.6992 79.02V93.58Z" fill="white"></path>
    <path d="M87.3103 71.26H68.0703V75.09H87.3103V71.26Z" fill="white"></path>
    <path d="M55.2595 90.06C51.0495 90.06 47.6395 86.61 47.6395 82.4C47.6395 78.19 51.0495 74.74 55.2595 74.74C59.4695 74.74 62.9195 78.18 62.9195 82.4C62.9195 86.62 59.4695 90.06 55.2595 90.06ZM55.2595 70.67C48.7795 70.67 43.5195 75.93 43.5195 82.41C43.5195 88.89 48.7795 94.18 55.2595 94.18C61.7395 94.18 67.0295 88.88 67.0295 82.41C67.0295 75.94 61.7395 70.67 55.2595 70.67Z" fill="white"></path>
  </g>
  <defs>
    <clipPath id="clip0_4055_7472">
      <rect width="210" height="94.19" fill="white"></rect>
    </clipPath>
  </defs>
</svg>
