<?xml version="1.0" encoding="UTF-8"?>
<svg xmlns="http://www.w3.org/2000/svg" width="143" height="19" viewBox="0 0 143 19" fill="none">
  <g clip-path="url(#clip0_4055_7366)">
    <path d="M44.0289 3.70002C43.5389 3.04002 42.8789 2.41002 42.0089 1.82002C35.4889 -2.54998 31.1489 1.78002 31.3589 5.87002C31.3589 7.04002 31.6189 7.86002 32.0889 8.49002C32.1989 8.40002 32.3189 8.31002 32.4389 8.22002C34.4789 6.68002 34.9889 7.72002 34.8989 8.61002C34.8389 9.21002 34.6789 9.71002 34.4589 10.16C35.7389 10.75 37.2789 11.32 38.7889 12.41C40.7489 10.03 44.5389 8.99002 44.0189 3.70002" fill="#FA5A25"></path>
    <path d="M44.0214 3.69995C44.5414 8.99995 40.7514 10.04 38.7914 12.42C38.1714 13.17 37.7314 14.06 37.6714 15.26C37.5714 17.29 39.6614 19.31 42.8014 16.47C49.3314 10.3 44.0314 3.69995 44.0314 3.69995" fill="#231F20"></path>
    <path d="M30.3308 16.35C30.3308 16.35 30.3308 16.33 30.3008 16.29C30.4308 16.64 30.6108 16.97 30.8808 17.26C33.3508 19.81 38.5908 19.3 36.9908 16.24C36.0808 14.28 33.2408 14.34 32.5008 12.49C31.5308 13.44 30.5808 14.49 30.3208 16.35" fill="#FA5A25"></path>
    <path d="M32.4411 8.21998C32.3211 8.30998 32.2011 8.39998 32.0911 8.48998C28.4211 11.42 30.0811 15.74 30.3111 16.29C30.3311 16.33 30.3311 16.35 30.3311 16.35C30.5911 14.49 31.5411 13.44 32.5111 12.49C33.2511 11.76 34.0011 11.09 34.4711 10.17C34.6911 9.71998 34.8511 9.21998 34.9111 8.61998C35.0011 7.72998 34.4911 6.68998 32.4511 8.22998" fill="#231F20"></path>
    <path d="M139.91 2.25L135.66 8.69L131.41 2.25H128.32L134.3 11.32V17.32H137.01V11.32L143 2.25H139.91Z" fill="#231F20"></path>
    <path d="M127.162 2.25H114.172V4.84H127.162V2.25Z" fill="#231F20"></path>
    <path d="M119.32 17.32H122.02V6.54004L119.32 7.49004V17.32Z" fill="#231F20"></path>
    <path d="M111.499 2.25H108.789V17.32H111.499V2.25Z" fill="#231F20"></path>
    <path d="M100.722 5.00998H100.742C102.092 5.00998 103.162 6.10998 103.162 7.44998C103.162 9.14998 101.712 10.34 99.5022 10.34H97.4222L103.242 17.32H106.602L102.312 12.19C104.412 11.54 105.862 9.66998 105.862 7.44998C105.862 4.57998 103.572 2.22998 100.732 2.22998H100.712L92.9922 2.24998V17.32H95.7022V5.00998H100.702H100.722Z" fill="#231F20"></path>
    <path d="M83.7908 8.8901V11.5201H87.6808C87.1508 13.3701 85.7208 14.9501 83.2908 14.9501C80.5108 14.9501 78.2608 12.6201 78.2608 9.7801C78.2608 6.9401 80.5108 4.6101 83.2908 4.6101C84.8908 4.6101 86.3808 5.4101 87.3308 6.7001L89.5608 5.1001C88.1108 3.0701 85.7808 1.8501 83.2908 1.8501C79.0208 1.8501 75.5508 5.4101 75.5508 9.7801C75.5508 14.1501 79.0208 17.7301 83.2908 17.7301C85.4108 17.7301 87.3508 16.8701 88.6908 15.3201C89.9508 13.8801 90.6208 11.9101 90.6208 9.7801C90.6208 9.4801 90.6208 9.2001 90.5808 8.9001H83.7908V8.8901Z" fill="#231F20"></path>
    <path d="M74.2111 4.83V2.25H62.3711V17.32H74.2111V14.71H65.0811V11.09H72.6311V8.48H65.0811V4.83H74.2111Z" fill="#231F20"></path>
    <path d="M7.4 2.17993H0V17.3099H2.71V4.87993H7.32C8.88 4.87993 10.12 6.14993 10.12 7.69993C10.12 9.24993 8.88 10.5199 7.32 10.5199H4.54L5.42 13.2099H7.4C10.39 13.2099 12.82 10.7299 12.82 7.68993C12.82 4.64993 10.39 2.17993 7.4 2.17993Z" fill="#231F20"></path>
    <path d="M22.6011 5.00998H22.6211C23.9711 5.00998 25.0411 6.10998 25.0411 7.44998C25.0411 9.14998 23.5911 10.34 21.3811 10.34H19.3011L25.1211 17.32H28.4811L24.1911 12.19C26.2911 11.54 27.7411 9.66998 27.7411 7.44998C27.7411 4.57998 25.4511 2.22998 22.6111 2.22998H22.5911L14.8711 2.24998V17.32H17.5811V5.00998H22.5811H22.6011Z" fill="#231F20"></path>
    <path d="M52.3102 17.32H55.0002V6.54L52.3102 7.49V17.32ZM60.1502 2.25H47.1602V4.84H60.1502V2.25Z" fill="#231F20"></path>
  </g>
  <defs>
    <clipPath id="clip0_4055_7366">
      <rect width="143" height="18.89" fill="white"></rect>
    </clipPath>
  </defs>
</svg>
